<?xml version="1.0" encoding="utf-8"?><!-- Uploaded to: SVG Repo, www.svgrepo.com, Generator: SVG Repo Mixer Tools -->
<svg fill="#000000" width="800px" height="800px" viewBox="0 0 24 24" id="sign-out-left-4" xmlns="http://www.w3.org/2000/svg" class="icon line"><path id="primary" d="M17,12H8m-4.62.69L6.5,14.83A1,1,0,0,0,8,14.14V9.86a1,1,0,0,0-1.5-.69L3.38,11.31A.82.82,0,0,0,3.38,12.69ZM12,8V5a1,1,0,0,1,1-1h7a1,1,0,0,1,1,1V19a1,1,0,0,1-1,1H13a1,1,0,0,1-1-1V16" style="fill: none; stroke: rgb(0, 0, 0); stroke-linecap: round; stroke-linejoin: round; stroke-width: 1.5;"></path></svg>